<svg width="35" height="35" viewBox="0 0 35 35" fill="none" xmlns="http://www.w3.org/2000/svg">
<path d="M0 10C0 4.47715 4.47715 0 10 0H33C34.1046 0 35 0.895431 35 2V25C35 30.5228 30.5228 35 25 35H2C0.89543 35 0 34.1046 0 33V10Z" fill="#021033"/>
<path d="M17.499 5L5 10.9041V14.7142H6.70031V29.4898H7.74199V14.7142H27.2577V29.4898H28.2994V14.7142H30V10.8546L17.499 5ZM28.9583 13.6744H6.04168V11.5626L17.501 6.14945L28.9584 11.5152V13.6744H28.9583Z" fill="white"/>
<path d="M16.9204 18.9089H12.1546V23.6014H16.9204V18.9089ZM15.8787 22.5617H13.1962V19.9487H15.8787V22.5617Z" fill="white"/>
<path d="M22.8451 18.9089H18.0793V23.6014H22.8451V18.9089ZM21.8035 22.5617H19.121V19.9487H21.8035V22.5617Z" fill="white"/>
<path d="M9.24703 29.2047H14.0131V24.512H9.24703V29.2047ZM10.2887 25.5518H12.9714V28.165H10.2887V25.5518Z" fill="white"/>
<path d="M15.1168 29.2047H19.8829V24.512H15.1168V29.2047ZM16.1585 25.5518H18.8412V28.165H16.1585V25.5518Z" fill="white"/>
<path d="M20.9869 29.2047H25.7527V24.512H20.9869V29.2047ZM22.0285 25.5518H24.711V28.165H22.0285V25.5518Z" fill="white"/>
<path d="M12.092 11.4619H9.60963V12.5017H12.092V11.4619Z" fill="white"/>
<path d="M18.741 11.4619H16.2587V12.5017H18.741V11.4619Z" fill="white"/>
<path d="M25.3901 11.4619H22.9077V12.5017H25.3901V11.4619Z" fill="white"/>
</svg>
